HIERARCHY
ROOT mixamorig:Hips
{
	OFFSET 0.000000 201.639420 0.000000
	CHANNELS 6 Xposition Yposition Zposition Xrotation Yrotation Zrotation
	JOINT mixamorig:Spine
	{
		OFFSET 0.006200 19.524994 -2.481800
		CHANNELS 3 Xrotation Yrotation Zrotation
		JOINT mixamorig:Spine1
		{
			OFFSET -0.000900 22.835007 -2.825400
			CHANNELS 3 Xrotation Yrotation Zrotation
			JOINT mixamorig:Spine2
			{
				OFFSET -0.020600 26.552490 -3.193300
				CHANNELS 3 Xrotation Yrotation Zrotation
				JOINT mixamorig:Neck
				{
					OFFSET -0.060000 30.701813 1.352200
					CHANNELS 3 Xrotation Yrotation Zrotation
					JOINT mixamorig:Head
					{
						OFFSET -0.087200 22.547607 3.670900
						CHANNELS 3 Xrotation Yrotation Zrotation
						JOINT mixamorig:HeadTop_End
						{
							OFFSET -0.830600 40.355194 7.893500
							CHANNELS 3 Xrotation Yrotation Zrotation
							End Site
							{
								OFFSET 0.000000 30.592346 0.000000
							}
						}
						JOINT mixamorig:RightEye
						{
							OFFSET -6.302100 18.118591 16.197100
							CHANNELS 3 Xrotation Yrotation Zrotation
							End Site
							{
								OFFSET 0.000000 30.592346 0.000000
							}
						}
						JOINT mixamorig:LeftEye
						{
							OFFSET 6.741500 18.382690 16.401899
							CHANNELS 3 Xrotation Yrotation Zrotation
							End Site
							{
								OFFSET 0.000000 30.592346 0.000000
							}
						}
					}
				}
				JOINT mixamorig:LeftShoulder
				{
					OFFSET 11.924900 18.230499 1.425400
					CHANNELS 3 Xrotation Yrotation Zrotation
					JOINT mixamorig:LeftArm
					{
						OFFSET 25.435989 -0.697632 -5.229300
						CHANNELS 3 Xrotation Yrotation Zrotation
						JOINT mixamorig:LeftForeArm
						{
							OFFSET 54.684776 0.000000 0.000000
							CHANNELS 3 Xrotation Yrotation Zrotation
							JOINT mixamorig:LeftHand
							{
								OFFSET 55.098175 0.000000 0.000000
								CHANNELS 3 Xrotation Yrotation Zrotation
								JOINT mixamorig:LeftHandMiddle1
								{
									OFFSET 23.369751 0.000000 0.000000
									CHANNELS 3 Xrotation Yrotation Zrotation
									JOINT mixamorig:LeftHandMiddle2
									{
										OFFSET 6.378677 0.000000 0.000000
										CHANNELS 3 Xrotation Yrotation Zrotation
										JOINT mixamorig:LeftHandMiddle3
										{
											OFFSET 6.148331 0.000000 0.000000
											CHANNELS 3 Xrotation Yrotation Zrotation
											JOINT mixamorig:LeftHandMiddle4
											{
												OFFSET 6.582504 0.000000 0.000000
												CHANNELS 3 Xrotation Yrotation Zrotation
												End Site
												{
													OFFSET -1.168900 6.395691 1.028606
												}
											}
										}
									}
								}
								JOINT mixamorig:LeftHandThumb1
								{
									OFFSET 7.235672 -3.848206 5.434273
									CHANNELS 3 Xrotation Yrotation Zrotation
									JOINT mixamorig:LeftHandThumb2
									{
										OFFSET 6.568451 -3.792297 3.792300
										CHANNELS 3 Xrotation Yrotation Zrotation
										JOINT mixamorig:LeftHandThumb3
										{
											OFFSET 6.063080 -3.500519 3.500518
											CHANNELS 3 Xrotation Yrotation Zrotation
											JOINT mixamorig:LeftHandThumb4
											{
												OFFSET 4.793182 -2.767334 2.767349
												CHANNELS 3 Xrotation Yrotation Zrotation
												End Site
												{
													OFFSET 0.101639 6.054260 1.275483
												}
											}
										}
									}
								}
								JOINT mixamorig:LeftHandIndex1
								{
									OFFSET 23.101074 -0.309540 4.992809
									CHANNELS 3 Xrotation Yrotation Zrotation
									JOINT mixamorig:LeftHandIndex2
									{
										OFFSET 6.226883 0.000000 0.000000
										CHANNELS 3 Xrotation Yrotation Zrotation
										JOINT mixamorig:LeftHandIndex3
										{
											OFFSET 6.094330 0.000000 0.000000
											CHANNELS 3 Xrotation Yrotation Zrotation
											JOINT mixamorig:LeftHandIndex4
											{
												OFFSET 5.482605 0.000000 0.000000
												CHANNELS 3 Xrotation Yrotation Zrotation
												End Site
												{
													OFFSET -1.427902 5.233032 0.797164
												}
											}
										}
									}
								}
								JOINT mixamorig:LeftHandRing1
								{
									OFFSET 22.299240 0.021149 -3.964172
									CHANNELS 3 Xrotation Yrotation Zrotation
									JOINT mixamorig:LeftHandRing2
									{
										OFFSET 6.321869 0.000000 0.000000
										CHANNELS 3 Xrotation Yrotation Zrotation
										JOINT mixamorig:LeftHandRing3
										{
											OFFSET 5.899796 0.000000 0.000000
											CHANNELS 3 Xrotation Yrotation Zrotation
											JOINT mixamorig:LeftHandRing4
											{
												OFFSET 6.517899 0.000000 0.000000
												CHANNELS 3 Xrotation Yrotation Zrotation
												End Site
												{
													OFFSET -1.637299 6.232208 0.980890
												}
											}
										}
									}
								}
								JOINT mixamorig:LeftHandPinky1
								{
									OFFSET 20.463791 -0.302338 -8.562233
									CHANNELS 3 Xrotation Yrotation Zrotation
									JOINT mixamorig:LeftHandPinky2
									{
										OFFSET 6.908646 0.000000 0.000000
										CHANNELS 3 Xrotation Yrotation Zrotation
										JOINT mixamorig:LeftHandPinky3
										{
											OFFSET 4.622849 0.000000 0.000000
											CHANNELS 3 Xrotation Yrotation Zrotation
											JOINT mixamorig:LeftHandPinky4
											{
												OFFSET 5.216080 0.000000 0.000000
												CHANNELS 3 Xrotation Yrotation Zrotation
												End Site
												{
													OFFSET -0.606308 5.116241 0.814926
												}
											}
										}
									}
								}
							}
						}
					}
				}
				JOINT mixamorig:RightShoulder
				{
					OFFSET -12.001300 18.284088 1.348900
					CHANNELS 3 Xrotation Yrotation Zrotation
					JOINT mixamorig:RightArm
					{
						OFFSET -25.308500 -0.751312 -5.164599
						CHANNELS 3 Xrotation Yrotation Zrotation
						JOINT mixamorig:RightForeArm
						{
							OFFSET -54.684429 0.000000 0.000000
							CHANNELS 3 Xrotation Yrotation Zrotation
							JOINT mixamorig:RightHand
							{
								OFFSET -55.150291 0.000000 0.000000
								CHANNELS 3 Xrotation Yrotation Zrotation
								JOINT mixamorig:RightHandMiddle1
								{
									OFFSET -23.317566 0.000000 0.000000
									CHANNELS 3 Xrotation Yrotation Zrotation
									JOINT mixamorig:RightHandMiddle2
									{
										OFFSET -6.378403 0.000000 0.000000
										CHANNELS 3 Xrotation Yrotation Zrotation
										JOINT mixamorig:RightHandMiddle3
										{
											OFFSET -6.148193 0.000000 0.000000
											CHANNELS 3 Xrotation Yrotation Zrotation
											JOINT mixamorig:RightHandMiddle4
											{
												OFFSET -6.583389 0.000000 0.000000
												CHANNELS 3 Xrotation Yrotation Zrotation
												End Site
												{
													OFFSET 1.171692 6.395905 1.029786
												}
											}
										}
									}
								}
								JOINT mixamorig:RightHandThumb1
								{
									OFFSET -7.190521 -3.860474 5.435846
									CHANNELS 3 Xrotation Yrotation Zrotation
									JOINT mixamorig:RightHandThumb2
									{
										OFFSET -6.567429 -3.791718 3.791708
										CHANNELS 3 Xrotation Yrotation Zrotation
										JOINT mixamorig:RightHandThumb3
										{
											OFFSET -6.062469 -3.500153 3.500166
											CHANNELS 3 Xrotation Yrotation Zrotation
											JOINT mixamorig:RightHandThumb4
											{
												OFFSET -4.792618 -2.767029 2.767022
												CHANNELS 3 Xrotation Yrotation Zrotation
												End Site
												{
													OFFSET -0.100327 6.053253 1.276754
												}
											}
										}
									}
								}
								JOINT mixamorig:RightHandIndex1
								{
									OFFSET -23.048981 -0.310791 4.992554
									CHANNELS 3 Xrotation Yrotation Zrotation
									JOINT mixamorig:RightHandIndex2
									{
										OFFSET -6.227539 0.000000 0.000000
										CHANNELS 3 Xrotation Yrotation Zrotation
										JOINT mixamorig:RightHandIndex3
										{
											OFFSET -6.095047 0.000000 0.000000
											CHANNELS 3 Xrotation Yrotation Zrotation
											JOINT mixamorig:RightHandIndex4
											{
												OFFSET -5.484772 0.000000 0.000000
												CHANNELS 3 Xrotation Yrotation Zrotation
												End Site
												{
													OFFSET 1.420593 5.237305 0.797056
												}
											}
										}
									}
								}
								JOINT mixamorig:RightHandRing1
								{
									OFFSET -22.246323 0.020569 -3.963762
									CHANNELS 3 Xrotation Yrotation Zrotation
									JOINT mixamorig:RightHandRing2
									{
										OFFSET -6.322128 0.000000 0.000000
										CHANNELS 3 Xrotation Yrotation Zrotation
										JOINT mixamorig:RightHandRing3
										{
											OFFSET -5.900024 0.000000 0.000000
											CHANNELS 3 Xrotation Yrotation Zrotation
											JOINT mixamorig:RightHandRing4
											{
												OFFSET -6.518356 0.000000 0.000000
												CHANNELS 3 Xrotation Yrotation Zrotation
												End Site
												{
													OFFSET 1.636398 6.232697 0.982186
												}
											}
										}
									}
								}
								JOINT mixamorig:RightHandPinky1
								{
									OFFSET -20.411011 -0.303314 -8.561701
									CHANNELS 3 Xrotation Yrotation Zrotation
									JOINT mixamorig:RightHandPinky2
									{
										OFFSET -6.907349 0.000000 0.000000
										CHANNELS 3 Xrotation Yrotation Zrotation
										JOINT mixamorig:RightHandPinky3
										{
											OFFSET -4.623840 0.000000 0.000000
											CHANNELS 3 Xrotation Yrotation Zrotation
											JOINT mixamorig:RightHandPinky4
											{
												OFFSET -5.218353 0.000000 0.000000
												CHANNELS 3 Xrotation Yrotation Zrotation
												End Site
												{
													OFFSET 0.602097 5.118835 0.816273
												}
											}
										}
									}
								}
							}
						}
					}
				}
			}
		}
	}
	JOINT mixamorig:LeftUpLeg
	{
		OFFSET 18.168400 -13.561905 -0.039000
		CHANNELS 3 Xrotation Yrotation Zrotation
		JOINT mixamorig:LeftLeg
		{
			OFFSET 0.577358 -80.825211 -3.695000
			CHANNELS 3 Xrotation Yrotation Zrotation
			JOINT mixamorig:LeftFoot
			{
				OFFSET -0.577356 -83.370262 -6.520700
				CHANNELS 3 Xrotation Yrotation Zrotation
				JOINT mixamorig:LeftToeBase
				{
					OFFSET 0.750401 -20.798306 25.135401
					CHANNELS 3 Xrotation Yrotation Zrotation
					JOINT mixamorig:LeftToe_End
					{
						OFFSET -0.000500 0.001200 19.917799
						CHANNELS 3 Xrotation Yrotation Zrotation
						End Site
						{
							OFFSET 0.000000 19.917805 0.000000
						}
					}
				}
			}
		}
	}
	JOINT mixamorig:RightUpLeg
	{
		OFFSET -18.162500 -13.585098 -0.041000
		CHANNELS 3 Xrotation Yrotation Zrotation
		JOINT mixamorig:RightLeg
		{
			OFFSET -0.595024 -80.945297 -3.631900
			CHANNELS 3 Xrotation Yrotation Zrotation
			JOINT mixamorig:RightFoot
			{
				OFFSET 0.595024 -83.218193 -6.561200
				CHANNELS 3 Xrotation Yrotation Zrotation
				JOINT mixamorig:RightToeBase
				{
					OFFSET -0.753601 -20.807106 25.115000
					CHANNELS 3 Xrotation Yrotation Zrotation
					JOINT mixamorig:RightToe_End
					{
						OFFSET 0.000299 0.001700 19.918200
						CHANNELS 3 Xrotation Yrotation Zrotation
						End Site
						{
							OFFSET 0.000000 19.918203 0.000000
						}
					}
				}
			}
		}
	}
}
MOTION
Frames: 4
Frame Time: 0.033333
-0.163693 201.216217 1.337841 -1.931073 2.008234 1.853924 2.293046 0.593534 0.463402 4.632677 1.281645 -1.585521 4.626097 1.304745 -1.587089 5.080314 0.501427 1.304448 -16.258412 2.620630 1.694400 0.000000 0.000000 0.000000 0.000000 0.000000 0.000000 0.000000 0.000000 0.000000 -0.202941 8.504675 -9.924682 -9.929788 -11.301018 -69.409475 0.000002 -14.606406 0.000013 33.260661 -6.466415 -9.986246 0.036010 0.704665 -5.849595 0.036402 0.708511 -5.881574 0.009056 0.353756 -2.932687 -0.000000 -0.000001 -0.000001 -1.662664 10.356283 7.143458 4.498140 14.661433 1.256835 -0.265354 4.923681 2.873383 -0.000001 0.000001 0.000002 0.036208 0.706586 -5.865591 0.036200 0.706595 -5.865588 0.009050 0.353751 -2.932694 0.000001 0.000000 -0.000002 0.036201 0.706581 -5.865599 0.036207 0.706608 -5.865570 0.009060 0.353749 -2.932697 -0.000001 0.000000 0.000002 0.433601 4.741408 -5.374071 0.024482 -3.348014 -6.373685 0.009055 0.353768 -2.932669 0.000000 0.000001 0.000001 2.535327 10.127575 10.966218 0.180804 -2.659431 65.155627 0.000011 28.276739 -0.000023 19.977456 -7.206903 20.997538 0.067673 -0.969794 7.984379 0.067677 -0.969802 7.984371 0.016946 -0.486085 3.991884 -0.000003 -0.000000 -0.000001 -1.921166 -8.102789 -7.292194 5.490836 -18.150908 -0.873149 -0.831980 -4.608291 -2.604393 0.000002 0.000001 0.000001 0.067676 -0.969793 7.984373 0.067687 -0.969799 7.984376 0.016943 -0.486086 3.991882 0.000003 -0.000000 0.000001 0.067675 -0.969799 7.984374 0.067680 -0.969795 7.984378 0.016943 -0.486088 3.991891 0.000003 -0.000001 0.000002 0.067674 -0.969796 7.984375 0.067682 -0.969798 7.984371 0.016944 -0.486083 3.991895 0.000003 -0.000000 0.000000 -7.822290 6.325122 8.146184 13.041863 0.578725 0.049283 -0.097209 -0.119930 1.636109 -4.229924 -0.000006 0.000001 0.000000 -0.000001 -0.000001 -7.957427 -10.495650 -10.855460 16.522595 -0.297839 -0.019010 -5.021385 0.010773 0.053728 -3.105492 -0.000002 -0.000001 -0.000000 -0.000000 -0.000001 
-0.174705 201.215363 1.414745 -1.865589 2.018404 1.826989 2.281536 0.595409 0.455229 4.609824 1.284145 -1.599865 4.603238 1.307115 -1.601425 5.062486 0.491956 1.335691 -16.290505 2.598845 1.668877 -0.000000 0.000000 -0.000000 -0.000000 0.000000 -0.000000 -0.000000 0.000000 -0.000000 -0.203051 8.501899 -9.919046 -9.929493 -11.286524 -69.433565 -0.000005 -14.567516 -0.000024 33.290701 -6.481262 -9.986070 0.036002 0.704664 -5.849605 0.036411 0.708508 -5.881560 0.009044 0.353756 -2.932682 0.000004 -0.000000 0.000000 -1.662673 10.356297 7.143466 4.498137 14.661436 1.256832 -0.265347 4.923671 2.873362 0.000002 0.000002 0.000001 0.036198 0.706584 -5.865599 0.036210 0.706579 -5.865591 0.009043 0.353763 -2.932673 0.000000 -0.000003 -0.000000 0.036202 0.706583 -5.865590 0.036202 0.706582 -5.865604 0.009052 0.353761 -2.932675 0.000000 0.000000 0.000002 0.433597 4.741407 -5.374065 0.024484 -3.348022 -6.373699 0.009046 0.353762 -2.932667 -0.000003 0.000001 0.000002 2.538284 10.130794 10.969225 0.170280 -2.682843 65.192264 -0.000008 28.232218 0.000006 19.999161 -7.060141 21.040999 0.067681 -0.969799 7.984384 0.067683 -0.969799 7.984364 0.016945 -0.486085 3.991898 -0.000001 0.000000 -0.000002 -1.921182 -8.102801 -7.292216 5.490854 -18.150891 -0.873135 -0.831972 -4.608284 -2.604370 -0.000001 0.000002 0.000001 0.067680 -0.969793 7.984384 0.067681 -0.969798 7.984368 0.016947 -0.486091 3.991886 0.000002 0.000000 -0.000002 0.067678 -0.969795 7.984380 0.067684 -0.969801 7.984370 0.016940 -0.486091 3.991892 0.000001 -0.000000 0.000003 0.067678 -0.969793 7.984384 0.067688 -0.969801 7.984369 0.016939 -0.486082 3.991889 0.000001 -0.000002 -0.000000 -7.916955 6.317544 8.156796 13.108486 0.582576 0.049543 -0.141585 -0.119880 1.632845 -4.251482 0.000006 0.000006 -0.000000 0.000001 0.000001 -8.014769 -10.472055 -10.842924 16.532678 -0.299002 -0.018971 -5.004205 0.011419 0.048592 -3.127613 0.000004 -0.000003 0.000000 -0.000001 -0.000000 
-0.187731 201.210892 1.498193 -1.838563 2.000941 1.815562 2.276097 0.598344 0.447301 4.599005 1.290583 -1.612548 4.592405 1.313460 -1.614105 5.050262 0.477236 1.388333 -16.289491 2.560075 1.646295 0.000000 0.000000 -0.000000 0.000000 0.000000 -0.000000 0.000000 0.000000 -0.000000 -0.203710 8.509417 -9.929975 -9.924567 -11.264675 -69.458694 -0.000005 -14.516698 -0.000036 33.329291 -6.502704 -10.002599 0.036006 0.704679 -5.849596 0.036398 0.708498 -5.881590 0.009057 0.353754 -2.932691 0.000003 -0.000000 -0.000000 -1.662674 10.356296 7.143466 4.498137 14.661421 1.256836 -0.265356 4.923673 2.873375 0.000002 0.000000 0.000001 0.036198 0.706595 -5.865580 0.036208 0.706591 -5.865604 0.009051 0.353747 -2.932693 0.000002 0.000001 0.000001 0.036199 0.706597 -5.865572 0.036213 0.706599 -5.865608 0.009058 0.353749 -2.932684 -0.000003 0.000001 -0.000001 0.433600 4.741419 -5.374058 0.024483 -3.348010 -6.373679 0.009054 0.353746 -2.932693 -0.000003 0.000000 0.000001 2.542622 10.143233 10.967453 0.160765 -2.699869 65.225096 0.000004 28.194329 -0.000005 19.994569 -6.964558 21.089637 0.067679 -0.969782 7.984384 0.067670 -0.969811 7.984346 0.016941 -0.486079 3.991904 -0.000001 0.000001 0.000000 -1.921161 -8.102788 -7.292207 5.490847 -18.150885 -0.873109 -0.831987 -4.608286 -2.604374 0.000001 0.000001 -0.000001 0.067682 -0.969788 7.984387 0.067684 -0.969801 7.984357 0.016933 -0.486080 3.991896 0.000003 -0.000001 -0.000002 0.067677 -0.969786 7.984389 0.067683 -0.969811 7.984346 0.016935 -0.486071 3.991910 0.000000 -0.000001 0.000003 0.067682 -0.969790 7.984377 0.067680 -0.969801 7.984369 0.016937 -0.486077 3.991893 0.000001 0.000000 -0.000001 -7.948608 6.329010 8.181627 13.170707 0.586901 0.049721 -0.181206 -0.120173 1.632958 -4.274164 0.000004 0.000002 0.000000 0.000001 0.000001 -8.032065 -10.461996 -10.828131 16.563974 -0.302828 -0.019034 -5.025303 0.011648 0.044087 -3.148979 -0.000004 -0.000000 -0.000000 -0.000000 -0.000001 
-0.203237 201.200470 1.599039 -1.810746 1.971084 1.802354 2.272181 0.600441 0.460836 4.591121 1.295428 -1.590278 4.584508 1.318260 -1.591832 5.051155 0.463862 1.344355 -16.321413 2.440778 1.689079 0.000000 -0.000000 -0.000000 0.000000 -0.000000 -0.000000 0.000000 -0.000000 -0.000000 -0.204481 8.519600 -9.945366 -9.915958 -11.251265 -69.474703 0.000005 -14.464469 0.000018 33.389086 -6.527050 -10.033538 0.036008 0.704679 -5.849579 0.036396 0.708499 -5.881595 0.009053 0.353757 -2.932669 -0.000001 0.000000 0.000000 -1.662669 10.356264 7.143460 4.498148 14.661382 1.256818 -0.265345 4.923664 2.873374 0.000005 0.000000 0.000001 0.036193 0.706597 -5.865585 0.036213 0.706586 -5.865605 0.009046 0.353753 -2.932677 -0.000000 0.000000 -0.000000 0.036196 0.706594 -5.865591 0.036188 0.706593 -5.865592 0.009063 0.353758 -2.932673 0.000000 0.000001 -0.000001 0.433592 4.741417 -5.374060 0.024486 -3.348020 -6.373699 0.009056 0.353760 -2.932669 0.000000 0.000001 0.000001 2.539250 10.140011 10.964860 0.165851 -2.704311 65.194559 0.000002 28.144578 0.000014 19.928018 -6.923794 21.101321 0.067678 -0.969795 7.984367 0.067693 -0.969802 7.984359 0.016938 -0.486071 3.991927 -0.000002 0.000001 -0.000001 -1.921182 -8.102789 -7.292213 5.490850 -18.150881 -0.873098 -0.831980 -4.608275 -2.604372 -0.000002 -0.000001 -0.000001 0.067681 -0.969793 7.984375 0.067686 -0.969797 7.984365 0.016942 -0.486077 3.991895 0.000003 0.000000 -0.000000 0.067671 -0.969790 7.984381 0.067693 -0.969805 7.984360 0.016943 -0.486078 3.991901 -0.000000 -0.000000 0.000000 0.067678 -0.969790 7.984375 0.067688 -0.969799 7.984363 0.016936 -0.486079 3.991901 -0.000003 -0.000001 -0.000001 -7.974742 6.348330 8.212114 13.238477 0.591978 0.049893 -0.240940 -0.120317 1.627630 -4.297171 -0.000002 -0.000002 0.000000 0.000001 0.000000 -8.051329 -10.449542 -10.812828 16.609270 -0.307554 -0.019088 -5.061393 0.011981 0.040054 -3.161690 0.000001 -0.000001 -0.000000 -0.000001 -0.000001 
